Coordinates
version=1
nRows=10
nColumns=38
inDegrees=yes

Units are S.I. units (second, meters, Newtons, ...)
Angles are in degrees.

endheader
time	pelvis_tilt	pelvis_list	pelvis_rotation	pelvis_tx	pelvis_ty	pelvis_tz	hip_flexion_r	hip_adduction_r	hip_rotation_r	knee_angle_r	ankle_angle_r	subtalar_angle_r	mtp_angle_r	hip_flexion_l	hip_adduction_l	hip_rotation_l	knee_angle_l	ankle_angle_l	subtalar_angle_l	mtp_angle_l	lumbar_extension	lumbar_bending	lumbar_rotation	arm_flex_r	arm_add_r	arm_rot_r	elbow_flex_r	pro_sup_r	wrist_flex_r	wrist_dev_r	arm_flex_l	arm_add_l	arm_rot_l	elbow_flex_l	pro_sup_l	wrist_flex_l	wrist_dev_l
      1.50000000	      6.16653218	     -1.27488151	      3.31323377	      0.05505241	      0.98406728	     -0.24319994	     17.00040807	      5.17081820	     -1.69325628	    -25.39104166	     -1.14730806	    -10.39151289	      0.00000000	     -9.06385092	     -0.76039759	     -1.89806454	    -48.25803564	    -17.91477753	      2.19508096	      0.00000000	    -20.16475634	      5.14631914	     -5.49613881	    -10.43937948	     -5.36774542	     21.28232550	     38.82925990	     42.17473414	      0.00000000	      0.00000000	      4.97037827	    -10.88122471	     30.32731178	     67.47123152	     42.17473414	      0.00000000	      0.00000000
      1.51000000	      6.20190544	     -1.59901626	      3.43692185	      0.06881220	      0.98439999	     -0.24334886	     16.40019118	      5.54554559	     -1.78113758	    -25.99881789	      0.11311563	    -10.26539437	      0.00000000	     -7.03853278	     -1.53449785	     -2.33027287	    -51.60961969	    -16.32214774	      2.05750419	      0.00000000	    -20.31530873	      5.60598853	     -5.14650999	    -10.14285785	     -5.36670344	     21.25402319	     38.77371101	     42.20171295	      0.00000000	      0.00000000	      4.69315697	    -10.77803765	     30.41500123	     67.10990418	     42.20171295	      0.00000000	      0.00000000
      1.52000000	      6.25259964	     -1.90085467	      3.65368519	      0.08226598	      0.98485799	     -0.24349005	     15.78311690	      5.88959190	     -1.92890139	    -26.59022356	      1.35384655	    -10.01951021	      0.00000000	     -5.12330298	     -2.41760750	     -2.82879199	    -54.57509244	    -13.74617458	      1.90934504	      0.00000000	    -20.53824738	      6.00123825	     -4.88926326	     -9.69688495	     -5.37745457	     21.26747412	     38.83770242	     42.23222659	      0.00000000	      0.00000000	      4.54344875	    -10.67853106	     30.45668173	     66.47299999	     42.23222659	      0.00000000	      0.00000000
      1.53000000	      6.34010597	     -2.11609867	      3.88011194	      0.09556511	      0.98567420	     -0.24367448	     14.99715358	      6.07384237	     -2.38570097	    -26.91384254	      2.56551616	     -9.50729257	      0.00000000	     -3.21886632	     -3.15392289	     -3.18023225	    -57.21407218	    -11.42348548	      1.17922357	      0.00000000	    -20.79278878	      6.29892533	     -4.64869774	     -9.18844199	     -5.42885997	     21.60714568	     38.98139984	     42.37381263	      0.00000000	      0.00000000	      4.71914014	    -10.22497972	     30.45893819	     64.36902318	     42.37381263	      0.00000000	      0.00000000
      1.54000000	      6.54915202	     -2.12492690	      4.09072961	      0.10879759	      0.98706136	     -0.24375666	     13.89569768	      6.18080126	     -2.38185765	    -26.91837861	      3.59448744	     -9.55492434	      0.00000000	     -1.46467388	     -3.54661052	     -3.34041977	    -59.38140518	     -9.65927070	     -0.17680569	      0.00000000	    -21.20833972	      6.33636731	     -4.48946467	     -8.60919867	     -5.34425182	     21.62472587	     39.14534434	     42.38553127	      0.00000000	      0.00000000	      4.49278819	    -10.31858218	     30.48924387	     64.09216077	     42.38553127	      0.00000000	      0.00000000
      1.55000000	      6.62322558	     -2.10387096	      4.36725822	      0.12189552	      0.98862038	     -0.24393223	     12.90345770	      6.17345772	     -2.69366556	    -26.83711892	      4.51748083	     -9.19101804	      0.00000000	      0.45299434	     -3.68676860	     -3.18098215	    -61.17478854	     -8.38611603	     -2.29677523	      0.00000000	    -21.42940478	      6.35793302	     -4.43749258	     -7.84187121	     -5.44518535	     21.90881875	     39.68202448	     42.46393243	      0.00000000	      0.00000000	      4.44329873	    -10.13761521	     30.51333893	     62.45137655	     42.46393243	      0.00000000	      0.00000000
      1.56000000	      6.77485380	     -2.05888043	      4.51456232	      0.13506767	      0.99047768	     -0.24375519	     11.70899822	      6.26465702	     -2.57695647	    -26.52599008	      5.25337867	     -9.20490294	      0.00000000	      2.11769838	     -3.73950682	     -3.06769274	    -62.45387951	     -7.08837279	     -4.10996624	      0.00000000	    -21.72804871	      6.27206673	     -4.24955385	     -7.29573999	     -5.32799785	     21.95550616	     39.85614374	     42.47930748	      0.00000000	      0.00000000	      4.03107363	    -10.28341860	     30.55090505	     62.01357824	     42.47930748	      0.00000000	      0.00000000
      1.57000000	      6.81737187	     -1.84014275	      4.60320132	      0.14820199	      0.99253836	     -0.24361156	     10.56211141	      6.17740553	     -2.40679152	    -26.08998693	      5.82364601	     -9.33771190	      0.00000000	      3.87197620	     -3.51862169	     -2.87242291	    -63.29273568	     -5.99288822	     -6.09539014	      0.00000000	    -21.87579854	      5.97807620	     -4.05229001	     -6.73921134	     -5.30386425	     22.53811519	     39.90064853	     42.62092163	      0.00000000	      0.00000000	      4.09792480	    -10.00508342	     30.66112895	     59.67551437	     42.62092163	      0.00000000	      0.00000000
      1.58000000	      6.84445068	     -1.63170772	      4.37664903	      0.16187280	      0.99471852	     -0.24300010	      9.33195386	      6.13024548	     -2.06074475	    -25.53557331	      6.41682072	     -9.26559597	      0.00000000	      5.37879215	     -3.49026579	     -3.20297253	    -63.62365967	     -4.42398325	     -6.97183975	      0.00000000	    -21.94118864	      5.55521052	     -3.56661006	     -6.22061345	     -5.17659120	     22.56226085	     40.07918549	     42.62974170	      0.00000000	      0.00000000	      3.56451210	    -10.18496313	     30.71393966	     59.36938868	     42.62974170	      0.00000000	      0.00000000
      1.59000000	      6.77250911	     -1.40625006	      4.18186089	      0.17520133	      0.99673775	     -0.24244851	      8.12691711	      6.15054801	     -1.12465209	    -24.80717696	      6.78520522	     -9.80076572	      0.00000000	      6.93622303	     -3.20039165	     -3.16012502	    -63.58372442	     -3.09807325	     -7.93326108	      0.00000000	    -21.90516771	      5.12605089	     -3.15742037	     -5.71456078	     -5.17488243	     22.84330299	     40.53858084	     42.69760847	      0.00000000	      0.00000000	      3.16306122	    -10.13349364	     30.68350758	     57.91081707	     42.69760847	      0.00000000	      0.00000000
